<?xml version="1.0" standalone="no"?>
<!DOCTYPE svg PUBLIC "-//W3C//DTD SVG 20010904//EN"
 "http://www.w3.org/TR/2001/REC-SVG-20010904/DTD/svg10.dtd">
<svg version="1.0" xmlns="http://www.w3.org/2000/svg"
 width="512.000000pt" height="512.000000pt" viewBox="0 0 512.000000 512.000000"
 preserveAspectRatio="xMidYMid meet">
<metadata>
Created by potrace 1.14, written by Peter Selinger 2001-2017
</metadata>
<g transform="translate(0.000000,512.000000) scale(0.100000,-0.100000)"
fill="#000000" stroke="none">
<path d="M2370 4430 c-272 -32 -520 -210 -654 -470 -34 -65 -74 -188 -86 -267
-15 -89 -15 -318 0 -413 6 -41 14 -126 17 -188 l6 -113 -29 -30 c-29 -31 -172
-109 -199 -109 -7 0 -28 17 -45 38 l-32 37 7 -95 c9 -135 34 -267 51 -274 11
-4 13 -16 8 -44 -8 -50 54 -240 131 -399 l54 -113 31 7 c22 4 35 2 40 -8 10
-16 -6 -39 -27 -39 -11 0 -10 -8 7 -39 31 -54 127 -173 133 -164 3 4 8 22 12
40 4 22 20 42 48 63 48 36 63 28 42 -23 -8 -20 -22 -63 -30 -94 l-15 -57 33
-34 c76 -80 246 -186 369 -232 105 -38 298 -73 298 -53 0 4 -30 31 -65 58 -36
28 -65 52 -65 55 0 3 16 14 36 25 48 25 71 60 119 179 35 87 45 103 74 118 30
15 38 15 70 2 51 -20 262 -54 335 -54 58 0 65 2 92 33 16 17 47 57 67 87 21
30 53 76 71 102 19 26 37 53 40 60 5 10 7 10 12 -1 4 -8 24 -33 44 -55 37 -41
60 -77 60 -94 0 -5 -18 -12 -40 -15 -23 -3 -56 -17 -76 -34 -86 -69 -108 -82
-160 -99 -63 -20 -124 -70 -124 -103 0 -44 48 -110 70 -96 7 4 1 17 -15 37
-14 16 -25 40 -25 53 0 26 20 40 111 78 36 16 93 50 125 78 32 27 75 54 94 59
29 8 43 23 89 95 29 47 55 94 58 104 6 22 -74 178 -121 236 -49 61 -85 132
-79 155 3 11 9 20 14 20 5 0 18 9 29 20 26 26 26 75 0 118 -24 39 -25 60 -5
90 19 26 10 49 -32 82 -23 18 -35 20 -79 14 -44 -5 -57 -2 -89 18 -38 24 -39
26 -40 89 -2 56 1 67 23 91 19 20 23 33 18 53 -5 20 19 97 95 307 l101 281 -7
101 c-23 347 -219 602 -535 696 -110 32 -320 46 -460 30z m295 -39 c7 -12 -12
-24 -25 -16 -11 7 -4 25 10 25 5 0 11 -4 15 -9z m-255 -37 c0 -21 -28 -28 -46
-13 -14 12 -14 14 1 25 20 15 45 8 45 -12z m418 -180 c34 -8 80 -23 101 -34
49 -25 132 -95 149 -126 12 -23 12 -24 -27 -24 -43 0 -74 28 -112 101 -20 41
-45 54 -34 19 8 -24 11 -25 -55 2 -50 20 -72 22 -235 23 -99 0 -198 -4 -221
-8 l-40 -7 4 30 c2 17 7 31 11 31 3 1 56 5 116 9 134 8 259 3 343 -16z m-488
-23 c0 -11 -15 -32 -34 -46 -27 -20 -35 -35 -41 -71 -4 -28 -17 -56 -33 -75
-23 -25 -38 -31 -105 -40 -44 -6 -81 -8 -84 -6 -2 3 3 16 12 30 12 19 27 26
67 29 56 6 78 24 78 65 0 45 27 91 67 112 49 26 73 27 73 2z m-215 -2 c10 -15
-1 -23 -20 -15 -9 3 -13 10 -10 16 8 13 22 13 30 -1z m928 -4 c1 -5 -6 -11
-15 -13 -11 -2 -18 3 -18 13 0 17 30 18 33 0z m123 -124 c54 -25 74 -55 74
-112 0 -43 3 -49 35 -68 42 -25 52 -47 61 -143 5 -61 3 -83 -16 -133 -12 -33
-37 -103 -55 -155 -19 -52 -52 -147 -75 -210 -23 -63 -44 -123 -47 -132 -6
-21 -33 -24 -33 -5 0 19 92 287 144 418 58 149 67 211 34 258 -12 19 -43 47
-68 61 -42 25 -45 29 -46 71 -1 70 -2 74 -36 94 -38 21 -48 33 -48 58 0 22 24
22 76 -2z m-1147 -78 c-7 -10 -35 -41 -61 -70 -55 -59 -62 -97 -28 -148 42
-63 13 -116 -69 -129 -68 -11 -76 -34 -75 -206 1 -101 8 -181 23 -265 64 -350
148 -568 317 -821 46 -69 84 -129 84 -133 0 -5 -8 -15 -19 -25 -22 -20 -13
-30 -125 138 -131 196 -212 376 -271 606 -52 202 -90 504 -76 603 16 111 39
142 114 154 49 7 54 22 28 76 -30 61 -27 98 12 149 32 43 104 88 140 88 17 0
18 -2 6 -17z m929 -164 c11 -19 44 -56 71 -84 67 -65 77 -97 55 -175 l-17 -60
-31 36 c-25 29 -40 37 -78 41 -55 6 -86 -10 -67 -33 6 -8 25 -14 41 -14 18 0
39 -10 54 -25 14 -14 31 -25 39 -25 20 0 19 -13 -6 -57 -12 -21 -46 -83 -76
-138 -100 -182 -115 -204 -145 -211 -33 -7 -61 -44 -52 -68 3 -9 1 -23 -6 -32
-12 -13 -17 -11 -46 17 -31 30 -36 31 -82 25 -69 -9 -184 9 -243 39 -98 50
-163 140 -123 170 29 21 7 31 -25 12 -16 -9 -37 -17 -46 -17 -24 0 -13 -24 13
-28 12 -2 22 -9 22 -16 0 -24 82 -107 131 -132 62 -31 150 -54 210 -54 45 0
46 -1 41 -27 -4 -21 1 -31 24 -49 22 -18 26 -26 17 -35 -16 -16 -39 -5 -55 27
-19 40 -63 52 -97 27 -37 -28 -37 -54 -1 -86 33 -30 38 -45 15 -53 -9 -4 -27
6 -44 25 -25 26 -35 31 -58 25 -35 -8 -51 -20 -58 -45 -4 -13 -16 -19 -35 -19
-30 0 -168 46 -184 61 -13 12 -36 12 -36 -1 0 -21 172 -80 313 -107 15 -3 26
-10 24 -17 -6 -18 -46 -19 -83 -1 -38 18 -67 13 -99 -15 -18 -16 -26 -16 -66
-6 -57 15 -120 52 -182 106 -57 51 -79 91 -79 142 1 35 42 262 78 431 8 37 12
72 9 76 -2 5 -17 11 -33 14 -65 13 -61 104 8 152 32 22 46 26 72 21 18 -4 47
-9 64 -12 l32 -6 -5 45 c-4 36 1 58 25 109 29 61 32 65 95 90 36 15 104 34
151 43 83 16 88 16 186 -7 98 -22 103 -22 164 -6 34 9 85 27 112 40 l49 24 11
-52 c6 -28 20 -66 32 -85z m52 -569 c12 -8 12 -15 -6 -52 -12 -24 -37 -64 -57
-89 -19 -26 -41 -59 -49 -73 l-14 -26 -13 35 c-12 33 -11 39 17 83 16 26 40
66 53 90 23 42 40 50 69 32z m78 -37 c21 -5 23 -10 17 -42 -15 -81 -40 -102
-90 -74 -20 11 -19 13 10 67 17 31 32 56 35 56 3 0 16 -3 28 -7z m-77 -149
c10 -12 10 -20 0 -35 -12 -20 -7 -59 9 -59 21 0 55 40 55 67 0 25 3 28 35 28
28 0 36 -4 38 -22 2 -14 -4 -26 -17 -33 -17 -9 -21 -20 -21 -65 l0 -55 -94 0
c-208 0 -403 -89 -537 -245 -48 -57 -49 -57 -97 -29 -32 19 -47 23 -55 15 -18
-18 -55 -13 -71 10 -18 26 -13 42 20 59 21 12 28 11 55 -9 28 -21 35 -22 70
-12 21 6 41 16 44 21 11 17 -15 50 -39 50 -13 0 -31 9 -41 20 -15 16 -15 22
-5 35 18 21 56 19 73 -5 12 -17 63 -40 89 -40 5 0 8 20 8 43 0 37 -4 46 -25
55 -30 14 -33 47 -5 62 26 14 60 -3 60 -30 0 -23 4 -26 58 -35 l42 -7 0 36 c0
29 -5 39 -25 48 -28 13 -32 30 -10 48 20 16 48 9 59 -17 9 -18 82 -54 89 -42
28 48 29 52 13 61 -23 13 -20 51 5 66 17 11 25 11 44 -2 13 -9 25 -25 27 -36
2 -12 15 -29 30 -38 27 -16 29 -16 50 5 21 21 21 23 4 42 -14 15 -15 24 -6 40
13 25 52 28 71 5z m94 -204 c4 -6 -19 -10 -62 -10 -195 0 -413 -103 -507 -239
-31 -44 -61 -60 -80 -41 -8 9 11 33 82 101 103 99 208 159 324 184 74 16 234
19 243 5z m59 -66 c33 -23 46 -26 90 -21 59 6 86 -5 86 -34 0 -27 -27 -35 -49
-15 -30 27 -73 20 -102 -16 -23 -28 -29 -30 -43 -19 -9 7 -16 22 -16 32 0 30
-37 61 -68 57 -21 -2 -32 -14 -49 -47 -13 -25 -28 -48 -35 -52 -7 -4 -36 6
-68 23 -62 35 -84 33 -102 -7 -9 -20 -8 -32 3 -58 25 -54 15 -69 -43 -65 -64
4 -82 -16 -55 -61 26 -44 22 -51 -28 -51 -75 0 -116 -56 -80 -107 8 -12 30
-25 47 -29 38 -8 77 -34 78 -51 0 -7 -16 -15 -35 -19 -28 -5 -40 -1 -66 20
-17 14 -39 26 -49 26 -23 0 -32 26 -25 72 5 29 1 42 -20 66 -21 26 -25 39 -22
74 4 38 13 51 88 122 130 123 275 184 439 185 76 1 89 -2 124 -25z m-76 -56
c7 -7 12 -22 12 -35 0 -48 83 -61 108 -16 10 17 11 17 31 -1 61 -55 78 -170
40 -270 -25 -67 -94 -134 -174 -167 -54 -22 -71 -39 -39 -39 14 0 14 -3 4 -15
-14 -17 -77 -20 -100 -5 -12 8 -11 10 8 10 41 0 23 19 -25 25 -84 11 -147 33
-192 66 -40 30 -42 33 -25 45 60 41 54 56 -9 25 -34 -17 -50 -19 -69 -12 -30
11 -41 36 -28 61 13 25 42 33 74 20 39 -14 42 -13 56 20 11 25 10 33 -2 48 -8
9 -18 25 -21 34 -5 15 0 16 42 11 74 -9 101 33 66 101 -30 57 -1 72 59 31 49
-33 89 -33 115 1 12 15 21 32 21 38 0 13 20 36 30 36 3 0 11 -5 18 -12z
m-1378 -14 c0 -9 -7 -14 -17 -12 -25 5 -28 28 -4 28 12 0 21 -6 21 -16z m1610
-56 c0 -17 -23 -18 -35 -2 -21 28 -18 34 10 21 14 -7 25 -15 25 -19z m-1090
-35 l25 -26 -40 6 c-22 4 -46 7 -52 7 -7 0 -13 9 -13 20 0 30 49 26 80 -7z
m187 -65 l63 -33 0 -45 c0 -34 5 -49 20 -60 15 -11 20 -26 20 -63 0 -27 5 -57
11 -69 9 -16 5 -28 -22 -67 l-32 -48 -58 26 c-40 18 -60 32 -64 48 -3 13 -23
34 -44 48 -56 35 -100 104 -138 213 -22 65 -17 69 78 71 46 1 85 4 88 6 8 9
15 6 78 -27z m943 3 c13 -25 2 -53 -19 -49 -22 4 -29 68 -7 68 8 0 20 -9 26
-19z m-1650 -102 c0 -16 -5 -20 -27 -17 -17 2 -29 10 -31 21 -3 13 3 17 27 17
25 0 31 -4 31 -21z m1613 -140 c10 -23 15 -45 10 -49 -4 -4 -25 0 -46 10 -37
17 -37 17 -17 35 11 10 20 24 20 32 0 26 15 13 33 -28z m-1003 -81 c0 -26 -6
-37 -29 -50 -16 -9 -37 -31 -46 -48 l-17 -32 43 -44 c57 -58 91 -72 124 -50
17 11 25 26 25 44 0 20 14 41 51 77 28 28 59 67 70 88 29 55 52 47 108 -34 26
-36 54 -74 64 -84 39 -39 -8 -117 -120 -201 -150 -113 -342 -74 -401 81 -32
84 -29 109 21 169 24 28 53 66 66 84 12 17 27 32 32 32 5 0 9 -15 9 -32z m967
-3 c25 -18 48 -79 36 -98 -4 -7 -62 -82 -127 -166 l-119 -154 -106 7 c-58 3
-142 15 -186 25 -44 10 -97 22 -117 25 -21 4 -38 10 -38 14 0 4 15 19 34 34
39 32 96 114 96 140 0 25 18 23 100 -14 54 -25 72 -39 77 -58 9 -37 13 -42 29
-29 8 6 14 28 14 48 0 33 9 46 93 127 50 51 101 96 112 102 29 16 77 14 102
-3z m-481 -10 c18 -15 18 -16 -18 -46 -36 -30 -48 -49 -29 -49 4 0 28 16 52
35 52 41 77 44 116 11 16 -14 41 -28 55 -31 l27 -7 -37 -39 c-41 -43 -40 -43
-78 -29 -24 10 -25 12 -11 28 8 9 17 28 19 42 5 39 -24 31 -44 -12 l-18 -37
-41 14 c-23 8 -44 13 -48 10 -8 -4 -86 84 -80 89 11 7 86 34 100 35 8 1 24 -6
35 -14z m-381 -55 c32 -12 32 -25 0 -46 -15 -10 -25 -26 -25 -39 0 -66 -35
-72 -97 -17 -24 21 -43 43 -43 48 0 15 52 61 75 67 23 6 52 1 90 -13z m-420
-90 c3 -5 1 -10 -4 -10 -6 0 -11 5 -11 10 0 6 2 10 4 10 3 0 8 -4 11 -10z
m598 -235 c-3 -20 -33 -31 -43 -15 -5 8 -6 18 -3 23 7 11 48 4 46 -8z m-138
-165 c0 -18 -33 -26 -47 -12 -6 6 -7 15 -3 22 10 16 50 8 50 -10z"/>
<path d="M2467 3709 c-48 -7 -97 -32 -97 -48 0 -5 6 -14 14 -20 11 -9 23 -8
51 4 61 25 116 20 160 -15 36 -28 39 -29 56 -14 16 14 17 19 5 36 -34 48 -105
69 -189 57z"/>
<path d="M2383 3565 c-18 -8 -33 -19 -33 -26 0 -7 6 -8 18 -3 24 11 108 17
137 10 14 -4 41 -23 62 -43 43 -44 61 -27 18 17 -55 58 -134 75 -202 45z"/>
<path d="M2800 3420 c0 -5 22 -10 49 -10 42 0 53 -4 74 -30 26 -30 47 -39 47
-19 0 6 -13 24 -29 40 -26 25 -37 29 -85 29 -31 0 -56 -4 -56 -10z"/>
<path d="M2690 3257 c0 -38 -21 -62 -62 -72 -33 -8 -37 -25 -8 -25 56 0 110
62 95 109 -10 32 -25 25 -25 -12z"/>
<path d="M3142 2588 c3 -7 23 -14 49 -16 53 -4 43 12 -15 22 -29 6 -37 4 -34
-6z"/>
<path d="M3157 2553 c-4 -3 -7 -21 -7 -40 0 -26 6 -36 25 -45 22 -10 28 -7 57
22 33 32 33 33 7 27 -21 -5 -28 -2 -39 18 -13 24 -30 32 -43 18z"/>
<path d="M2892 2500 c-21 -33 -13 -45 13 -20 14 13 25 27 25 32 0 16 -25 8
-38 -12z"/>
<path d="M2932 2468 c-7 -7 -12 -22 -12 -34 0 -12 -8 -25 -17 -29 -14 -6 -11
-10 17 -16 19 -4 43 -6 53 -3 23 7 22 45 -3 72 -24 26 -23 25 -38 10z"/>
<path d="M3127 2453 c-4 -6 0 -18 7 -29 8 -10 11 -25 8 -32 -3 -10 0 -13 9
-10 8 3 15 11 16 19 4 19 -32 65 -40 52z"/>
<path d="M3140 2321 c-39 -22 -55 -26 -120 -24 -67 1 -73 0 -55 -13 32 -24
116 -18 176 14 29 15 54 33 57 40 5 17 -7 14 -58 -17z"/>
<path d="M1071 1043 c1 -62 6 -56 11 15 2 23 0 42 -4 42 -5 0 -7 -26 -7 -57z"/>
<path d="M1110 1096 c0 -2 7 -7 16 -10 8 -3 12 -2 9 4 -6 10 -25 14 -25 6z"/>
<path d="M1510 1089 c0 -5 5 -7 10 -4 6 3 10 8 10 11 0 2 -4 4 -10 4 -5 0 -10
-5 -10 -11z"/>
<path d="M1910 1089 c0 -5 5 -7 10 -4 6 3 10 8 10 11 0 2 -4 4 -10 4 -5 0 -10
-5 -10 -11z"/>
<path d="M1950 1096 c0 -2 7 -7 16 -10 8 -3 12 -2 9 4 -6 10 -25 14 -25 6z"/>
<path d="M2322 1093 c13 -3 18 -18 21 -56 l3 -52 2 52 c2 40 6 53 20 56 9 3
-1 5 -23 5 -22 0 -32 -2 -23 -5z"/>
<path d="M2729 1083 c-13 -17 -13 -17 6 -3 11 8 22 16 24 17 2 2 0 3 -6 3 -6
0 -17 -8 -24 -17z"/>
<path d="M2799 1081 c24 -24 25 -34 11 -62 -7 -12 -21 -19 -41 -19 -24 0 -33
6 -44 33 -8 17 -14 25 -15 17 -1 -57 76 -81 107 -34 15 23 15 29 2 52 -8 14
-20 27 -28 30 -7 2 -4 -5 8 -17z"/>
<path d="M3171 1043 c1 -62 6 -56 11 15 2 23 0 42 -4 42 -5 0 -7 -26 -7 -57z"/>
<path d="M3218 1093 c17 -6 15 -33 -3 -47 -12 -9 -12 -14 6 -36 18 -22 19 -22
9 -3 -8 17 -7 28 1 41 14 22 6 52 -13 51 -10 0 -10 -2 0 -6z"/>
<path d="M3614 1088 c-4 -6 -3 -8 4 -4 9 6 21 -15 26 -48 1 -6 7 -20 14 -31
12 -19 13 -18 6 5 -9 36 -32 90 -38 90 -3 0 -8 -5 -12 -12z"/>
<path d="M4012 1048 c-2 -57 -2 -58 26 -57 22 1 23 2 5 6 -19 4 -23 12 -26 56
l-3 52 -2 -57z"/>
<path d="M1910 1060 c0 -5 5 -10 11 -10 5 0 7 5 4 10 -3 6 -8 10 -11 10 -2 0
-4 -4 -4 -10z"/>
<path d="M3596 1046 c-3 -13 -9 -32 -12 -43 -5 -15 -4 -15 7 2 13 20 24 65 15
65 -2 0 -7 -11 -10 -24z"/>
<path d="M1541 1043 c-1 -12 4 -25 9 -28 12 -7 12 2 0 30 -8 19 -9 19 -9 -2z"/>
<path d="M1482 1018 c-10 -30 -10 -31 3 -14 13 17 21 46 12 46 -1 0 -8 -15
-15 -32z"/>
<path d="M1971 1023 c-1 -12 -7 -24 -13 -26 -10 -4 -10 -6 0 -6 15 -1 26 23
19 41 -3 7 -6 3 -6 -9z"/>
<path d="M1910 1000 c0 -6 7 -10 15 -10 8 0 15 2 15 4 0 2 -7 6 -15 10 -8 3
-15 1 -15 -4z"/>
<path d="M1032 648 c-16 -216 -17 -208 12 -208 13 0 28 6 34 13 6 7 14 62 18
122 10 166 15 168 63 19 50 -153 52 -158 78 -150 14 4 30 40 63 140 24 74 47
133 50 131 4 -3 10 -55 14 -117 10 -156 11 -159 52 -156 34 2 35 2 29 43 -7
53 -25 262 -25 298 0 26 -2 27 -53 27 l-53 0 -37 -104 c-20 -57 -37 -109 -37
-115 0 -26 -16 -8 -28 32 -7 23 -25 75 -39 115 l-26 72 -51 0 -52 0 -12 -162z"/>
<path d="M1662 643 c-33 -93 -64 -176 -67 -185 -6 -15 -1 -18 27 -18 28 0 37
5 46 25 7 14 12 33 12 41 0 12 15 14 87 12 l86 -3 12 -35 c10 -31 16 -35 48
-36 l35 -1 -30 81 c-16 45 -45 123 -63 173 -19 51 -36 97 -40 103 -3 5 -26 10
-49 10 l-43 0 -61 -167z m137 22 c30 -85 30 -85 -35 -85 -41 0 -55 3 -52 13 3
6 16 42 29 79 13 37 27 64 31 60 3 -4 16 -34 27 -67z"/>
<path d="M2112 628 l3 -183 30 0 30 0 3 68 c4 91 23 90 81 -3 41 -67 44 -70
82 -70 21 0 39 3 39 6 0 3 -20 34 -45 69 l-45 63 35 35 c29 29 35 42 35 79 0
90 -39 116 -173 117 l-77 1 2 -182z m159 112 c22 -12 27 -68 7 -88 -7 -7 -31
-12 -55 -12 l-43 0 0 55 0 55 36 0 c19 0 44 -5 55 -10z"/>
<path d="M2550 625 c0 -176 1 -185 19 -185 51 0 51 0 51 191 l0 179 -35 0 -35
0 0 -185z"/>
<path d="M2886 743 c-56 -148 -106 -286 -106 -295 0 -5 15 -8 34 -6 30 2 35 6
45 40 l12 38 83 0 83 0 12 -38 c11 -31 18 -38 41 -40 50 -4 53 -18 -50 256
l-43 112 -43 0 -42 0 -26 -67z m99 -79 c14 -38 25 -72 25 -76 0 -5 -25 -8 -55
-8 -30 0 -55 4 -55 9 0 4 11 39 25 77 14 38 25 71 25 73 0 14 13 -14 35 -75z"/>
<path d="M3290 625 l0 -185 35 0 34 0 3 135 3 136 84 -136 85 -136 35 3 36 3
3 183 2 182 -34 0 -35 0 -3 -130 -3 -129 -80 129 -80 130 -42 0 -43 0 0 -185z"/>
<path d="M3886 758 c-17 -50 -96 -264 -111 -299 -5 -13 1 -16 31 -15 33 1 38
5 49 36 l12 35 83 0 83 0 12 -35 c11 -31 16 -35 49 -36 30 -1 36 2 31 15 -6
15 -21 54 -101 274 l-29 77 -45 0 -45 0 -19 -52z m109 -135 l13 -43 -58 0 -59
0 26 72 c13 40 27 77 31 82 5 9 20 -25 47 -111z"/>
</g>
</svg>
