<svg id="visual" viewBox="0 0 900 1150" width="900" height="1150" xmlns="http://www.w3.org/2000/svg" xmlns:xlink="http://www.w3.org/1999/xlink" version="1.1"><rect x="0" y="0" width="900" height="1150" fill="#fff"></rect><path d="M0 604L37.5 628.3C75 652.7 150 701.3 225 716.7C300 732 375 714 450 714.3C525 714.7 600 733.3 675 751.5C750 769.7 825 787.3 862.5 796.2L900 805L900 0L862.5 0C825 0 750 0 675 0C600 0 525 0 450 0C375 0 300 0 225 0C150 0 75 0 37.5 0L0 0Z" fill="#1d5fd3"></path><path d="M0 670L37.5 661.7C75 653.3 150 636.7 225 641.2C300 645.7 375 671.3 450 687.3C525 703.3 600 709.7 675 672.8C750 636 825 556 862.5 516L900 476L900 0L862.5 0C825 0 750 0 675 0C600 0 525 0 450 0C375 0 300 0 225 0C150 0 75 0 37.5 0L0 0Z" fill="#1953c5"></path><path d="M0 403L37.5 396.8C75 390.7 150 378.3 225 401.8C300 425.3 375 484.7 450 481.3C525 478 600 412 675 382C750 352 825 358 862.5 361L900 364L900 0L862.5 0C825 0 750 0 675 0C600 0 525 0 450 0C375 0 300 0 225 0C150 0 75 0 37.5 0L0 0Z" fill="#1447b7"></path><path d="M0 213L37.5 222.3C75 231.7 150 250.3 225 282.3C300 314.3 375 359.7 450 359.3C525 359 600 313 675 285.5C750 258 825 249 862.5 244.5L900 240L900 0L862.5 0C825 0 750 0 675 0C600 0 525 0 450 0C375 0 300 0 225 0C150 0 75 0 37.5 0L0 0Z" fill="#0e3ba9"></path><path d="M0 135L37.5 139.5C75 144 150 153 225 146.2C300 139.3 375 116.7 450 115.5C525 114.3 600 134.7 675 146.3C750 158 825 161 862.5 162.5L900 164L900 0L862.5 0C825 0 750 0 675 0C600 0 525 0 450 0C375 0 300 0 225 0C150 0 75 0 37.5 0L0 0Z" fill="#07309b"></path></svg>