<?xml version="1.0" encoding="UTF-8"?>
<!DOCTYPE svg  PUBLIC '-//W3C//DTD SVG 1.1//EN'  'http://www.w3.org/Graphics/SVG/1.1/DTD/svg11.dtd'>
<svg clip-rule="evenodd" fill-rule="evenodd" stroke-linejoin="round" stroke-miterlimit="2" version="1.1" viewBox="0 0 1290 2796" xml:space="preserve" xmlns="http://www.w3.org/2000/svg" xmlns:serif="http://www.serif.com/">
    <g transform="translate(-9.095e-13 -3200)">
        <g transform="matrix(1.1129 0 0 1.6732 9.095e-13 -2728.1)" serif:id="iPhone 14 Pro Max, 15 Plus, 15 Pro Max (1290x2796)">
            <rect y="3543" width="1159.2" height="1671.1" fill="none"/>
            <clipPath id="a">
                <rect y="3543" width="1159.2" height="1671.1"/>
            </clipPath>
            <g clip-path="url(#a)">
                <g transform="matrix(.566 0 0 .62076 0 3543)">
                    <g transform="scale(2.2756 5.2873)">
                        <path d="m0 538 30 7.2c30 7.1 90 21.5 150 30.5s120 12.6 180 15.3 120 4.3 180-14 120-56.7 180-58.5 120 32.8 150 50.2l30 17.3v-586h-900v538z" fill="#1d5fd3" fill-rule="nonzero"/>
                    </g>
                    <g transform="scale(2.2756 5.2873)">
                        <path d="m0 285 30 2.7c30 2.6 90 8 150 2.3s120-22.3 180-26.3 120 4.6 180 0.8 120-20.2 180-14.7 120 32.9 150 46.5l30 13.7v-310h-900v285z" fill="#103fae" fill-rule="nonzero"/>
                    </g>
                    <g transform="scale(2.2756 5.2873)">
                        <path d="m0 179 30-7.7c30-7.6 90-23 150-24.3s120 11.3 180 5.8 120-29.1 180-33.6 120 10.1 180 3.1 120-35.6 150-50l30-14.3v-58h-900v179z" fill="#07309b" fill-rule="nonzero"/>
                    </g>
                </g>
                <g transform="matrix(1.288 0 0 3.2822 0 3543)">
                    <path d="m900 310v69l-30-7.3c-30-7.4-90-22-150-10s-120 50.6-180 63c-60 12.3-120-1.7-180-20.9-60-19.1-120-43.5-180-55s-120-10.1-150-9.5l-30 0.7v-55l30 2.7c30 2.6 90 8 150 2.3s120-22.3 180-26.3 120 4.6 180 0.8 120-20.2 180-14.7 120 32.9 150 46.5l30 13.7z" fill="#174fc0"/>
                </g>
            </g>
        </g>
    </g>
</svg>
