<svg xmlns="http://www.w3.org/2000/svg" xmlns:xlink="http://www.w3.org/1999/xlink" width="2000" zoomAndPan="magnify" viewBox="0 0 1500 843.749997" height="1125" preserveAspectRatio="xMidYMid meet" version="1.0"><defs><clipPath id="293f971722"><path d="M 0.222656 0 L 1499.777344 0 L 1499.777344 843.5 L 0.222656 843.5 Z M 0.222656 0 " clip-rule="nonzero"/></clipPath><clipPath id="11dbe3c3cc"><path d="M 0.222656 0 L 1499.777344 0 L 1499.777344 707 L 0.222656 707 Z M 0.222656 0 " clip-rule="nonzero"/></clipPath><clipPath id="750d0c6eee"><path d="M 0.222656 0 L 1499.777344 0 L 1499.777344 508 L 0.222656 508 Z M 0.222656 0 " clip-rule="nonzero"/></clipPath><clipPath id="386e5bec03"><path d="M 0.222656 0 L 1499.777344 0 L 1499.777344 290 L 0.222656 290 Z M 0.222656 0 " clip-rule="nonzero"/></clipPath></defs><g clip-path="url(#293f971722)"><path fill="#ffffff" d="M 0.222656 0 L 1499.777344 0 L 1499.777344 843.5 L 0.222656 843.5 Z M 0.222656 0 " fill-opacity="1" fill-rule="nonzero"/><path fill="#ffffff" d="M 0.222656 0 L 1499.777344 0 L 1499.777344 843.5 L 0.222656 843.5 Z M 0.222656 0 " fill-opacity="1" fill-rule="nonzero"/><path fill="#1d5fd3" d="M 0.222656 887.160156 L 50.207031 899.15625 C 100.191406 910.988281 200.164062 934.980469 300.132812 949.976562 C 400.105469 964.972656 500.074219 970.96875 600.042969 975.46875 C 700.015625 979.964844 799.984375 982.632812 899.957031 952.140625 C 999.925781 921.652344 1099.894531 857.667969 1199.867188 854.671875 C 1299.835938 851.671875 1399.808594 909.320312 1449.792969 938.3125 L 1499.777344 967.136719 L 1499.777344 -9.238281 L 1449.792969 -9.238281 C 1399.808594 -9.238281 1299.835938 -9.238281 1199.867188 -9.238281 C 1099.894531 -9.238281 999.925781 -9.238281 899.957031 -9.238281 C 799.984375 -9.238281 700.015625 -9.238281 600.042969 -9.238281 C 500.074219 -9.238281 400.105469 -9.238281 300.132812 -9.238281 C 200.164062 -9.238281 100.191406 -9.238281 50.207031 -9.238281 L 0.222656 -9.238281 Z M 0.222656 887.160156 " fill-opacity="1" fill-rule="nonzero"/></g><g clip-path="url(#11dbe3c3cc)"><path fill="#174fc0" d="M 0.222656 557.257812 L 50.207031 556.09375 C 100.191406 555.09375 200.164062 552.761719 300.132812 571.921875 C 400.105469 591.082031 500.074219 631.738281 600.042969 663.558594 C 700.015625 695.550781 799.984375 718.878906 899.957031 698.382812 C 999.925781 677.722656 1099.894531 613.410156 1199.867188 593.414062 C 1299.835938 573.421875 1399.808594 597.746094 1449.792969 610.078125 L 1499.777344 622.238281 L 1499.777344 -9.238281 L 1449.792969 -9.238281 C 1399.808594 -9.238281 1299.835938 -9.238281 1199.867188 -9.238281 C 1099.894531 -9.238281 999.925781 -9.238281 899.957031 -9.238281 C 799.984375 -9.238281 700.015625 -9.238281 600.042969 -9.238281 C 500.074219 -9.238281 400.105469 -9.238281 300.132812 -9.238281 C 200.164062 -9.238281 100.191406 -9.238281 50.207031 -9.238281 L 0.222656 -9.238281 Z M 0.222656 557.257812 " fill-opacity="1" fill-rule="nonzero"/></g><g clip-path="url(#750d0c6eee)"><path fill="#103fae" d="M 0.222656 465.617188 L 50.207031 470.117188 C 100.191406 474.449219 200.164062 483.445312 300.132812 473.949219 C 400.105469 464.453125 500.074219 436.792969 600.042969 430.128906 C 700.015625 423.464844 799.984375 437.792969 899.957031 431.460938 C 999.925781 425.132812 1099.894531 397.804688 1199.867188 406.96875 C 1299.835938 416.132812 1399.808594 461.785156 1449.792969 484.445312 L 1499.777344 507.273438 L 1499.777344 -9.238281 L 1449.792969 -9.238281 C 1399.808594 -9.238281 1299.835938 -9.238281 1199.867188 -9.238281 C 1099.894531 -9.238281 999.925781 -9.238281 899.957031 -9.238281 C 799.984375 -9.238281 700.015625 -9.238281 600.042969 -9.238281 C 500.074219 -9.238281 400.105469 -9.238281 300.132812 -9.238281 C 200.164062 -9.238281 100.191406 -9.238281 50.207031 -9.238281 L 0.222656 -9.238281 Z M 0.222656 465.617188 " fill-opacity="1" fill-rule="nonzero"/></g><g clip-path="url(#386e5bec03)"><path fill="#07309b" d="M 0.222656 289.003906 L 50.207031 276.175781 C 100.191406 263.511719 200.164062 237.851562 300.132812 235.6875 C 400.105469 233.519531 500.074219 254.515625 600.042969 245.351562 C 700.015625 236.1875 799.984375 196.867188 899.957031 189.367188 C 999.925781 181.871094 1099.894531 206.195312 1199.867188 194.53125 C 1299.835938 182.871094 1399.808594 135.21875 1449.792969 111.222656 L 1499.777344 87.398438 L 1499.777344 -9.238281 L 1449.792969 -9.238281 C 1399.808594 -9.238281 1299.835938 -9.238281 1199.867188 -9.238281 C 1099.894531 -9.238281 999.925781 -9.238281 899.957031 -9.238281 C 799.984375 -9.238281 700.015625 -9.238281 600.042969 -9.238281 C 500.074219 -9.238281 400.105469 -9.238281 300.132812 -9.238281 C 200.164062 -9.238281 100.191406 -9.238281 50.207031 -9.238281 L 0.222656 -9.238281 Z M 0.222656 289.003906 " fill-opacity="1" fill-rule="nonzero"/></g></svg>