<?xml version="1.0" encoding="UTF-8"?>
<svg width="2e3" height="1125" version="1.0" viewBox="0 0 1500 843.75" xmlns="http://www.w3.org/2000/svg" zoomAndPan="magnify">
<defs>
<clipPath id="c">
<path d="m0.22266 0h1499.6v843.5h-1499.6z"/>
</clipPath>
<clipPath id="d">
<path d="m0.22266 0h1499.6v707h-1499.6z"/>
</clipPath>
<clipPath id="a">
<path d="m0.22266 0h1499.6v508h-1499.6z"/>
</clipPath>
<clipPath id="b">
<path d="m0.22266 0h1499.6v290h-1499.6z"/>
</clipPath>
</defs>
<g clip-path="url(#c)">
<path d="m0.22266 0h1499.6v843.5h-1499.6z" fill="#fff"/>
<path d="m0.22266 0h1499.6v843.5h-1499.6z" fill="#fff"/>
<path d="m0.22266 887.16 49.984 11.996c49.984 11.832 149.96 35.824 249.93 50.82 99.973 14.996 199.94 20.992 299.91 25.492 99.973 4.4961 199.94 7.1641 299.91-23.328 99.969-30.488 199.94-94.473 299.91-97.469 99.969-3 199.94 54.648 249.93 83.641l49.984 28.824v-976.38h-49.984-249.93-299.91-299.91-299.91-249.93-49.984z" fill="#1d5fd3"/>
</g>
<g clip-path="url(#d)">
<path d="m0.22266 557.26 49.984-1.1641c49.984-1 149.96-3.332 249.93 15.828 99.973 19.16 199.94 59.816 299.91 91.637 99.973 31.992 199.94 55.32 299.91 34.824 99.969-20.66 199.94-84.973 299.91-104.97 99.969-19.992 199.94 4.332 249.93 16.664l49.984 12.16v-631.48h-49.984-249.93-299.91-299.91-299.91-249.93-49.984z" fill="#174fc0"/>
</g>
<g clip-path="url(#a)">
<path d="m0.22266 465.62 49.984 4.5c49.984 4.332 149.96 13.328 249.93 3.832 99.973-9.4961 199.94-37.156 299.91-43.82 99.973-6.6641 199.94 7.6641 299.91 1.332 99.969-6.3281 199.94-33.656 299.91-24.492 99.969 9.1641 199.94 54.816 249.93 77.477l49.984 22.828v-516.51h-49.984-249.93-299.91-299.91-299.91-249.93-49.984z" fill="#103fae"/>
</g>
<g clip-path="url(#b)">
<path d="m0.22266 289 49.984-12.828c49.984-12.664 149.96-38.324 249.93-40.488 99.973-2.168 199.94 18.828 299.91 9.6641 99.973-9.1641 199.94-48.484 299.91-55.984 99.969-7.4961 199.94 16.828 299.91 5.1641 99.969-11.66 199.94-59.312 249.93-83.309l49.984-23.824v-96.637h-49.984-249.93-299.91-299.91-299.91-249.93-49.984z" fill="#07309b"/>
</g>
</svg>
